# xmcd
#
# Track frame offsets: 
#        150
#        12852
#        20630
#        33120
#        35282
#        47465
#        56862
#        68615
#        78820
#        83392
#        93632
#        103487
#        112905
#        115007
#        124602
#        133535
#        148612
#        150075
#        162632
#        181680
#        186090
#        194912
#
# Disc length: 2811 seconds
#
# Revision: 4
# Processed by: cddbd v1.5.2PL0 Copyright (c) Steve Scherf et al.
# Submitted via: ExactAudioCopy v1.0b1
#
DISCID=150af916
DTITLE=Johnny Cash - The Man in Black: 1959-1962 [CD5]
DYEAR=1991
DGENRE=Country
TTITLE0=The Girl In Saskatoon (take 1) (stereo)
TTITLE1=The Girl In Saskatoon (take 2) (stereo)
TTITLE2=The Girl In Saskatoon (take 3) (stereo)
TTITLE3=The Girl In Saskatoon (take 4-5) (stereo)
TTITLE4=The Girl In Saskatoon (take 6) (stereo)
TTITLE5=The Girl In Saskatoon (take 7-8) (stereo)
TTITLE6=The Girl In Saskatoon (take 9 - master) (stereo)
TTITLE7=An Empty Chair (take 1) (stereo) (Roy Cash)
TTITLE8=An Empty Chair (take 2-4) (stereo) (Roy Cash)
TTITLE9=An Empty Chair (take 5 - master) (stereo) (Roy Cash)
TTITLE10=Relief Is Just A Swallow Away (take 1) (stereo) (Roy Cash)
TTITLE11=Relief Is Just A Swallow Away (take 2) (stereo) (Roy Cash)
TTITLE12=Relief Is Just A Swallow Away (take 3-4) (stereo) (Roy Cash)
TTITLE13=Relief Is Just A Swallow Away (take 5) (stereo) (Roy Cash)
TTITLE14=Relief Is Just A Swallow Away (take 6 - master) (stereo) (Roy
TTITLE14=Cash)
TTITLE15=Riot In Cell Block #9 (take 1) (stereo) (Ray Liberto)
TTITLE16=Riot In Cell Block #9 (take 2) (stereo) (Ray Liberto)
TTITLE17=Riot In Cell Block #9 (take 3) (stereo) (Ray Liberto)
TTITLE18=It's A Sin To Tell A Lie (take 1) (stereo) (Ray Liberto)
TTITLE19=Rocket '69 (take 1) (stereo) (Ray Liberto)
TTITLE20=Rocket '69 (take 2) (stereo) (Ray Liberto)
TTITLE21=Blueberry Hill (take 1) (stereo) (Ray Liberto)
EXTD=
EXTT0=
EXTT1=
EXTT2=
EXTT3=
EXTT4=
EXTT5=
EXTT6=
EXTT7=
EXTT8=
EXTT9=
EXTT10=
EXTT11=
EXTT12=
EXTT13=
EXTT14=
EXTT15=
EXTT16=
EXTT17=
EXTT18=
EXTT19=
EXTT20=
EXTT21=
PLAYORDER=
